<mxfile host="app.diagrams.net" agent="Mozilla/5.0 (Windows NT 10.0; Win64; x64) AppleWebKit/537.36 (KHTML, like Gecko) Chrome/139.0.0.0 Safari/537.36" version="28.2.0">
  <diagram name="Página-1" id="ocoSZaAQVugHEFtMZDUH">
    <mxGraphModel grid="1" page="1" gridSize="10" guides="1" tooltips="1" connect="1" arrows="1" fold="1" pageScale="1" pageWidth="827" pageHeight="1169" math="0" shadow="0">
      <root>
        <mxCell id="0" />
        <mxCell id="1" parent="0" />
        <mxCell id="f2BKNjYlsUP_5xgJeypy-26" value="" style="ellipse;shape=cloud;whiteSpace=wrap;html=1;fillColor=#e1d5e7;strokeColor=#9673a6;" vertex="1" parent="1">
          <mxGeometry x="70" y="-40" width="721" height="680" as="geometry" />
        </mxCell>
        <mxCell id="f2BKNjYlsUP_5xgJeypy-18" style="edgeStyle=orthogonalEdgeStyle;rounded=0;orthogonalLoop=1;jettySize=auto;html=1;" edge="1" parent="1" source="LtN_ABp98KglV9sxf6Uq-26" target="LtN_ABp98KglV9sxf6Uq-27">
          <mxGeometry relative="1" as="geometry">
            <mxPoint x="125" y="400" as="targetPoint" />
            <Array as="points">
              <mxPoint x="125" y="340" />
            </Array>
          </mxGeometry>
        </mxCell>
        <mxCell id="LtN_ABp98KglV9sxf6Uq-26" value="Actor" style="shape=umlActor;verticalLabelPosition=bottom;verticalAlign=top;html=1;outlineConnect=0;" vertex="1" parent="1">
          <mxGeometry x="110" y="460" width="30" height="60" as="geometry" />
        </mxCell>
        <mxCell id="f2BKNjYlsUP_5xgJeypy-19" style="edgeStyle=orthogonalEdgeStyle;rounded=0;orthogonalLoop=1;jettySize=auto;html=1;" edge="1" parent="1" source="LtN_ABp98KglV9sxf6Uq-27" target="LtN_ABp98KglV9sxf6Uq-28">
          <mxGeometry relative="1" as="geometry">
            <Array as="points">
              <mxPoint x="240" y="240" />
            </Array>
          </mxGeometry>
        </mxCell>
        <mxCell id="LtN_ABp98KglV9sxf6Uq-27" value="Amazon S3" style="sketch=0;outlineConnect=0;fontColor=#232F3E;gradientColor=none;strokeColor=#ffffff;fillColor=#232F3E;dashed=0;verticalLabelPosition=middle;verticalAlign=bottom;align=center;html=1;whiteSpace=wrap;fontSize=10;fontStyle=1;spacing=3;shape=mxgraph.aws4.productIcon;prIcon=mxgraph.aws4.s3;" vertex="1" parent="1">
          <mxGeometry x="200" y="280" width="80" height="100" as="geometry" />
        </mxCell>
        <mxCell id="f2BKNjYlsUP_5xgJeypy-20" style="edgeStyle=orthogonalEdgeStyle;rounded=0;orthogonalLoop=1;jettySize=auto;html=1;" edge="1" parent="1" source="LtN_ABp98KglV9sxf6Uq-28" target="f2BKNjYlsUP_5xgJeypy-1">
          <mxGeometry relative="1" as="geometry">
            <Array as="points">
              <mxPoint x="610" y="250" />
            </Array>
          </mxGeometry>
        </mxCell>
        <mxCell id="f2BKNjYlsUP_5xgJeypy-21" style="edgeStyle=orthogonalEdgeStyle;rounded=0;orthogonalLoop=1;jettySize=auto;html=1;" edge="1" parent="1" source="LtN_ABp98KglV9sxf6Uq-28" target="LtN_ABp98KglV9sxf6Uq-29">
          <mxGeometry relative="1" as="geometry" />
        </mxCell>
        <mxCell id="f2BKNjYlsUP_5xgJeypy-23" style="edgeStyle=orthogonalEdgeStyle;rounded=0;orthogonalLoop=1;jettySize=auto;html=1;" edge="1" parent="1" source="LtN_ABp98KglV9sxf6Uq-28" target="LtN_ABp98KglV9sxf6Uq-30">
          <mxGeometry relative="1" as="geometry" />
        </mxCell>
        <mxCell id="LtN_ABp98KglV9sxf6Uq-28" value="AWS Lambda" style="sketch=0;outlineConnect=0;fontColor=#232F3E;gradientColor=none;strokeColor=#ffffff;fillColor=#232F3E;dashed=0;verticalLabelPosition=middle;verticalAlign=bottom;align=center;html=1;whiteSpace=wrap;fontSize=10;fontStyle=1;spacing=3;shape=mxgraph.aws4.productIcon;prIcon=mxgraph.aws4.lambda;" vertex="1" parent="1">
          <mxGeometry x="390" y="200" width="80" height="100" as="geometry" />
        </mxCell>
        <mxCell id="f2BKNjYlsUP_5xgJeypy-22" style="edgeStyle=orthogonalEdgeStyle;rounded=0;orthogonalLoop=1;jettySize=auto;html=1;" edge="1" parent="1" source="LtN_ABp98KglV9sxf6Uq-29" target="LtN_ABp98KglV9sxf6Uq-31">
          <mxGeometry relative="1" as="geometry" />
        </mxCell>
        <mxCell id="LtN_ABp98KglV9sxf6Uq-29" value="Amazon DynamoDB" style="sketch=0;outlineConnect=0;fontColor=#232F3E;gradientColor=none;strokeColor=#ffffff;fillColor=#232F3E;dashed=0;verticalLabelPosition=middle;verticalAlign=bottom;align=center;html=1;whiteSpace=wrap;fontSize=10;fontStyle=1;spacing=3;shape=mxgraph.aws4.productIcon;prIcon=mxgraph.aws4.dynamodb;" vertex="1" parent="1">
          <mxGeometry x="390" y="330" width="80" height="110" as="geometry" />
        </mxCell>
        <mxCell id="LtN_ABp98KglV9sxf6Uq-31" value="Amazon EC2" style="sketch=0;outlineConnect=0;fontColor=#232F3E;gradientColor=none;strokeColor=#ffffff;fillColor=#232F3E;dashed=0;verticalLabelPosition=middle;verticalAlign=bottom;align=center;html=1;whiteSpace=wrap;fontSize=10;fontStyle=1;spacing=3;shape=mxgraph.aws4.productIcon;prIcon=mxgraph.aws4.ec2;" vertex="1" parent="1">
          <mxGeometry x="390" y="485" width="80" height="100" as="geometry" />
        </mxCell>
        <mxCell id="f2BKNjYlsUP_5xgJeypy-1" value="Amazon S3" style="sketch=0;outlineConnect=0;fontColor=#232F3E;gradientColor=none;strokeColor=#ffffff;fillColor=#232F3E;dashed=0;verticalLabelPosition=middle;verticalAlign=bottom;align=center;html=1;whiteSpace=wrap;fontSize=10;fontStyle=1;spacing=3;shape=mxgraph.aws4.productIcon;prIcon=mxgraph.aws4.s3;" vertex="1" parent="1">
          <mxGeometry x="580" y="280" width="80" height="100" as="geometry" />
        </mxCell>
        <mxCell id="LtN_ABp98KglV9sxf6Uq-30" value="Amazon CloudWatch" style="sketch=0;outlineConnect=0;fontColor=#232F3E;gradientColor=none;strokeColor=#ffffff;fillColor=#232F3E;dashed=0;verticalLabelPosition=middle;verticalAlign=bottom;align=center;html=1;whiteSpace=wrap;fontSize=10;fontStyle=1;spacing=3;shape=mxgraph.aws4.productIcon;prIcon=mxgraph.aws4.cloudwatch;" vertex="1" parent="1">
          <mxGeometry x="390" y="50" width="80" height="110" as="geometry" />
        </mxCell>
        <mxCell id="f2BKNjYlsUP_5xgJeypy-24" value="Bucket de Entrada" style="text;html=1;align=center;verticalAlign=middle;resizable=0;points=[];autosize=1;strokeColor=none;fillColor=none;" vertex="1" parent="1">
          <mxGeometry x="180" y="388" width="120" height="30" as="geometry" />
        </mxCell>
        <mxCell id="f2BKNjYlsUP_5xgJeypy-25" value="Bucket de Saída" style="text;html=1;align=center;verticalAlign=middle;resizable=0;points=[];autosize=1;strokeColor=none;fillColor=none;" vertex="1" parent="1">
          <mxGeometry x="565" y="388" width="110" height="30" as="geometry" />
        </mxCell>
      </root>
    </mxGraphModel>
  </diagram>
</mxfile>
